<mxfile host="app.diagrams.net" modified="2021-11-08T05:08:43.155Z" agent="5.0 (Windows NT 10.0; Win64; x64) AppleWebKit/537.36 (KHTML, like Gecko) Chrome/95.0.4638.69 Safari/537.36" etag="tzFtDZY6gysLxgoTqy7q" version="15.7.0" type="github">
  <diagram id="MfLAGxXRqBZUs_taJzYB" name="Page-1">
    <mxGraphModel dx="1422" dy="832" grid="1" gridSize="10" guides="1" tooltips="1" connect="1" arrows="1" fold="1" page="1" pageScale="1" pageWidth="1100" pageHeight="850" math="0" shadow="0">
      <root>
        <mxCell id="0" />
        <mxCell id="1" parent="0" />
        <mxCell id="i7VJk_vyDsrVkz2_0ncC-37" style="edgeStyle=orthogonalEdgeStyle;rounded=0;orthogonalLoop=1;jettySize=auto;html=1;exitX=0.25;exitY=1;exitDx=0;exitDy=0;entryX=0.5;entryY=0;entryDx=0;entryDy=0;" edge="1" parent="1" source="i7VJk_vyDsrVkz2_0ncC-2" target="i7VJk_vyDsrVkz2_0ncC-6">
          <mxGeometry relative="1" as="geometry" />
        </mxCell>
        <mxCell id="i7VJk_vyDsrVkz2_0ncC-38" style="edgeStyle=orthogonalEdgeStyle;rounded=0;orthogonalLoop=1;jettySize=auto;html=1;exitX=0.5;exitY=1;exitDx=0;exitDy=0;" edge="1" parent="1" source="i7VJk_vyDsrVkz2_0ncC-2" target="i7VJk_vyDsrVkz2_0ncC-17">
          <mxGeometry relative="1" as="geometry" />
        </mxCell>
        <mxCell id="i7VJk_vyDsrVkz2_0ncC-39" style="edgeStyle=orthogonalEdgeStyle;rounded=0;orthogonalLoop=1;jettySize=auto;html=1;exitX=0.75;exitY=1;exitDx=0;exitDy=0;" edge="1" parent="1" source="i7VJk_vyDsrVkz2_0ncC-2" target="i7VJk_vyDsrVkz2_0ncC-23">
          <mxGeometry relative="1" as="geometry" />
        </mxCell>
        <mxCell id="i7VJk_vyDsrVkz2_0ncC-40" style="edgeStyle=orthogonalEdgeStyle;rounded=0;orthogonalLoop=1;jettySize=auto;html=1;exitX=1;exitY=1;exitDx=0;exitDy=0;" edge="1" parent="1" source="i7VJk_vyDsrVkz2_0ncC-2" target="i7VJk_vyDsrVkz2_0ncC-27">
          <mxGeometry relative="1" as="geometry" />
        </mxCell>
        <mxCell id="i7VJk_vyDsrVkz2_0ncC-41" style="edgeStyle=orthogonalEdgeStyle;rounded=0;orthogonalLoop=1;jettySize=auto;html=1;exitX=1;exitY=0.5;exitDx=0;exitDy=0;" edge="1" parent="1" source="i7VJk_vyDsrVkz2_0ncC-2" target="i7VJk_vyDsrVkz2_0ncC-5">
          <mxGeometry relative="1" as="geometry" />
        </mxCell>
        <mxCell id="i7VJk_vyDsrVkz2_0ncC-2" value="&lt;h2&gt;Home Page&lt;/h2&gt;" style="rounded=1;whiteSpace=wrap;html=1;" vertex="1" parent="1">
          <mxGeometry x="448" y="30" width="205" height="50" as="geometry" />
        </mxCell>
        <mxCell id="i7VJk_vyDsrVkz2_0ncC-42" style="edgeStyle=orthogonalEdgeStyle;rounded=0;orthogonalLoop=1;jettySize=auto;html=1;exitX=0.5;exitY=1;exitDx=0;exitDy=0;" edge="1" parent="1" source="i7VJk_vyDsrVkz2_0ncC-3" target="i7VJk_vyDsrVkz2_0ncC-7">
          <mxGeometry relative="1" as="geometry" />
        </mxCell>
        <mxCell id="i7VJk_vyDsrVkz2_0ncC-3" value="&lt;h2&gt;About Me&amp;nbsp;&lt;/h2&gt;" style="rounded=1;whiteSpace=wrap;html=1;" vertex="1" parent="1">
          <mxGeometry x="10" y="130" width="110" height="70" as="geometry" />
        </mxCell>
        <mxCell id="i7VJk_vyDsrVkz2_0ncC-45" style="edgeStyle=orthogonalEdgeStyle;rounded=0;orthogonalLoop=1;jettySize=auto;html=1;exitX=0.5;exitY=1;exitDx=0;exitDy=0;entryX=0.5;entryY=0;entryDx=0;entryDy=0;" edge="1" parent="1" source="i7VJk_vyDsrVkz2_0ncC-4" target="i7VJk_vyDsrVkz2_0ncC-10">
          <mxGeometry relative="1" as="geometry" />
        </mxCell>
        <mxCell id="i7VJk_vyDsrVkz2_0ncC-4" value="&lt;h2&gt;Different Types of Websites (Links)&lt;/h2&gt;" style="rounded=1;whiteSpace=wrap;html=1;" vertex="1" parent="1">
          <mxGeometry x="160" y="130" width="137" height="70" as="geometry" />
        </mxCell>
        <mxCell id="i7VJk_vyDsrVkz2_0ncC-60" style="edgeStyle=orthogonalEdgeStyle;rounded=0;orthogonalLoop=1;jettySize=auto;html=1;exitX=0.5;exitY=1;exitDx=0;exitDy=0;" edge="1" parent="1" source="i7VJk_vyDsrVkz2_0ncC-5" target="i7VJk_vyDsrVkz2_0ncC-19">
          <mxGeometry relative="1" as="geometry" />
        </mxCell>
        <mxCell id="i7VJk_vyDsrVkz2_0ncC-5" value="&lt;h2&gt;Contact&lt;/h2&gt;" style="rounded=1;whiteSpace=wrap;html=1;" vertex="1" parent="1">
          <mxGeometry x="960" y="125" width="120" height="70" as="geometry" />
        </mxCell>
        <mxCell id="i7VJk_vyDsrVkz2_0ncC-52" style="edgeStyle=orthogonalEdgeStyle;rounded=0;orthogonalLoop=1;jettySize=auto;html=1;exitX=0.5;exitY=1;exitDx=0;exitDy=0;" edge="1" parent="1" source="i7VJk_vyDsrVkz2_0ncC-6" target="i7VJk_vyDsrVkz2_0ncC-16">
          <mxGeometry relative="1" as="geometry" />
        </mxCell>
        <mxCell id="i7VJk_vyDsrVkz2_0ncC-6" value="&lt;h2&gt;Article&lt;/h2&gt;" style="rounded=1;whiteSpace=wrap;html=1;" vertex="1" parent="1">
          <mxGeometry x="323" y="135" width="110" height="65" as="geometry" />
        </mxCell>
        <mxCell id="i7VJk_vyDsrVkz2_0ncC-43" style="edgeStyle=orthogonalEdgeStyle;rounded=0;orthogonalLoop=1;jettySize=auto;html=1;exitX=0.5;exitY=1;exitDx=0;exitDy=0;entryX=0.5;entryY=0;entryDx=0;entryDy=0;" edge="1" parent="1" source="i7VJk_vyDsrVkz2_0ncC-7" target="i7VJk_vyDsrVkz2_0ncC-8">
          <mxGeometry relative="1" as="geometry" />
        </mxCell>
        <mxCell id="i7VJk_vyDsrVkz2_0ncC-7" value="My Major/Education" style="rounded=1;whiteSpace=wrap;html=1;" vertex="1" parent="1">
          <mxGeometry x="5" y="240" width="120" height="60" as="geometry" />
        </mxCell>
        <mxCell id="i7VJk_vyDsrVkz2_0ncC-44" style="edgeStyle=orthogonalEdgeStyle;rounded=0;orthogonalLoop=1;jettySize=auto;html=1;exitX=0.5;exitY=1;exitDx=0;exitDy=0;entryX=0.5;entryY=0;entryDx=0;entryDy=0;" edge="1" parent="1" source="i7VJk_vyDsrVkz2_0ncC-8" target="i7VJk_vyDsrVkz2_0ncC-9">
          <mxGeometry relative="1" as="geometry" />
        </mxCell>
        <mxCell id="i7VJk_vyDsrVkz2_0ncC-8" value="Personal Projects" style="rounded=1;whiteSpace=wrap;html=1;" vertex="1" parent="1">
          <mxGeometry x="5" y="330" width="120" height="60" as="geometry" />
        </mxCell>
        <mxCell id="i7VJk_vyDsrVkz2_0ncC-9" value="Talk about my Interest/Career goal" style="rounded=1;whiteSpace=wrap;html=1;" vertex="1" parent="1">
          <mxGeometry x="5" y="420" width="120" height="60" as="geometry" />
        </mxCell>
        <mxCell id="i7VJk_vyDsrVkz2_0ncC-47" style="edgeStyle=orthogonalEdgeStyle;rounded=0;orthogonalLoop=1;jettySize=auto;html=1;exitX=0.5;exitY=1;exitDx=0;exitDy=0;entryX=0.5;entryY=0;entryDx=0;entryDy=0;" edge="1" parent="1" source="i7VJk_vyDsrVkz2_0ncC-10" target="i7VJk_vyDsrVkz2_0ncC-11">
          <mxGeometry relative="1" as="geometry" />
        </mxCell>
        <mxCell id="i7VJk_vyDsrVkz2_0ncC-10" value="Link 1 (Personal website)" style="rounded=1;whiteSpace=wrap;html=1;" vertex="1" parent="1">
          <mxGeometry x="160" y="240" width="120" height="60" as="geometry" />
        </mxCell>
        <mxCell id="i7VJk_vyDsrVkz2_0ncC-48" style="edgeStyle=orthogonalEdgeStyle;rounded=0;orthogonalLoop=1;jettySize=auto;html=1;exitX=0.5;exitY=1;exitDx=0;exitDy=0;entryX=0.5;entryY=0;entryDx=0;entryDy=0;" edge="1" parent="1" source="i7VJk_vyDsrVkz2_0ncC-11" target="i7VJk_vyDsrVkz2_0ncC-12">
          <mxGeometry relative="1" as="geometry" />
        </mxCell>
        <mxCell id="i7VJk_vyDsrVkz2_0ncC-11" value="Link 2 (Social Media: Facebook)" style="rounded=1;whiteSpace=wrap;html=1;" vertex="1" parent="1">
          <mxGeometry x="160" y="330" width="120" height="60" as="geometry" />
        </mxCell>
        <mxCell id="i7VJk_vyDsrVkz2_0ncC-49" style="edgeStyle=orthogonalEdgeStyle;rounded=0;orthogonalLoop=1;jettySize=auto;html=1;exitX=0.5;exitY=1;exitDx=0;exitDy=0;" edge="1" parent="1" source="i7VJk_vyDsrVkz2_0ncC-12">
          <mxGeometry relative="1" as="geometry">
            <mxPoint x="220" y="500" as="targetPoint" />
          </mxGeometry>
        </mxCell>
        <mxCell id="i7VJk_vyDsrVkz2_0ncC-12" value="Link 3: Entertainment website (Gaming news)" style="rounded=1;whiteSpace=wrap;html=1;" vertex="1" parent="1">
          <mxGeometry x="160" y="420" width="120" height="60" as="geometry" />
        </mxCell>
        <mxCell id="i7VJk_vyDsrVkz2_0ncC-50" style="edgeStyle=orthogonalEdgeStyle;rounded=0;orthogonalLoop=1;jettySize=auto;html=1;exitX=0.5;exitY=1;exitDx=0;exitDy=0;entryX=0.5;entryY=0;entryDx=0;entryDy=0;" edge="1" parent="1" source="i7VJk_vyDsrVkz2_0ncC-13" target="i7VJk_vyDsrVkz2_0ncC-14">
          <mxGeometry relative="1" as="geometry" />
        </mxCell>
        <mxCell id="i7VJk_vyDsrVkz2_0ncC-13" value="Link 4: Artistic websites" style="rounded=1;whiteSpace=wrap;html=1;" vertex="1" parent="1">
          <mxGeometry x="160" y="510" width="120" height="60" as="geometry" />
        </mxCell>
        <mxCell id="i7VJk_vyDsrVkz2_0ncC-51" style="edgeStyle=orthogonalEdgeStyle;rounded=0;orthogonalLoop=1;jettySize=auto;html=1;exitX=0.5;exitY=1;exitDx=0;exitDy=0;entryX=0.5;entryY=0;entryDx=0;entryDy=0;" edge="1" parent="1" source="i7VJk_vyDsrVkz2_0ncC-14" target="i7VJk_vyDsrVkz2_0ncC-15">
          <mxGeometry relative="1" as="geometry" />
        </mxCell>
        <mxCell id="i7VJk_vyDsrVkz2_0ncC-14" value="Link 5: news website&amp;nbsp;" style="rounded=1;whiteSpace=wrap;html=1;" vertex="1" parent="1">
          <mxGeometry x="160" y="600" width="120" height="60" as="geometry" />
        </mxCell>
        <mxCell id="i7VJk_vyDsrVkz2_0ncC-15" value="Link 6: Mail (yahoomail)" style="rounded=1;whiteSpace=wrap;html=1;" vertex="1" parent="1">
          <mxGeometry x="160" y="690" width="120" height="60" as="geometry" />
        </mxCell>
        <mxCell id="i7VJk_vyDsrVkz2_0ncC-16" value="Article about the benefit of hard coding website" style="rounded=1;whiteSpace=wrap;html=1;" vertex="1" parent="1">
          <mxGeometry x="323" y="240" width="120" height="60" as="geometry" />
        </mxCell>
        <mxCell id="i7VJk_vyDsrVkz2_0ncC-53" style="edgeStyle=orthogonalEdgeStyle;rounded=0;orthogonalLoop=1;jettySize=auto;html=1;exitX=0.5;exitY=1;exitDx=0;exitDy=0;entryX=0.5;entryY=0;entryDx=0;entryDy=0;" edge="1" parent="1" source="i7VJk_vyDsrVkz2_0ncC-17" target="i7VJk_vyDsrVkz2_0ncC-18">
          <mxGeometry relative="1" as="geometry" />
        </mxCell>
        <mxCell id="i7VJk_vyDsrVkz2_0ncC-17" value="&lt;h2&gt;Breakdown of my Website&lt;/h2&gt;" style="rounded=1;whiteSpace=wrap;html=1;" vertex="1" parent="1">
          <mxGeometry x="460" y="130" width="120" height="70" as="geometry" />
        </mxCell>
        <mxCell id="i7VJk_vyDsrVkz2_0ncC-18" value="Video of my website" style="rounded=1;whiteSpace=wrap;html=1;" vertex="1" parent="1">
          <mxGeometry x="460" y="240" width="120" height="60" as="geometry" />
        </mxCell>
        <mxCell id="i7VJk_vyDsrVkz2_0ncC-61" style="edgeStyle=orthogonalEdgeStyle;rounded=0;orthogonalLoop=1;jettySize=auto;html=1;exitX=0.5;exitY=1;exitDx=0;exitDy=0;entryX=0.5;entryY=0;entryDx=0;entryDy=0;" edge="1" parent="1" source="i7VJk_vyDsrVkz2_0ncC-19" target="i7VJk_vyDsrVkz2_0ncC-20">
          <mxGeometry relative="1" as="geometry" />
        </mxCell>
        <mxCell id="i7VJk_vyDsrVkz2_0ncC-19" value="Email" style="rounded=1;whiteSpace=wrap;html=1;" vertex="1" parent="1">
          <mxGeometry x="960" y="235" width="120" height="60" as="geometry" />
        </mxCell>
        <mxCell id="i7VJk_vyDsrVkz2_0ncC-62" style="edgeStyle=orthogonalEdgeStyle;rounded=0;orthogonalLoop=1;jettySize=auto;html=1;exitX=0.5;exitY=1;exitDx=0;exitDy=0;" edge="1" parent="1" source="i7VJk_vyDsrVkz2_0ncC-20" target="i7VJk_vyDsrVkz2_0ncC-21">
          <mxGeometry relative="1" as="geometry" />
        </mxCell>
        <mxCell id="i7VJk_vyDsrVkz2_0ncC-20" value="Linkedin" style="rounded=1;whiteSpace=wrap;html=1;" vertex="1" parent="1">
          <mxGeometry x="960" y="335" width="120" height="60" as="geometry" />
        </mxCell>
        <mxCell id="i7VJk_vyDsrVkz2_0ncC-63" style="edgeStyle=orthogonalEdgeStyle;rounded=0;orthogonalLoop=1;jettySize=auto;html=1;exitX=0.5;exitY=1;exitDx=0;exitDy=0;entryX=0.5;entryY=0;entryDx=0;entryDy=0;" edge="1" parent="1" source="i7VJk_vyDsrVkz2_0ncC-21" target="i7VJk_vyDsrVkz2_0ncC-22">
          <mxGeometry relative="1" as="geometry" />
        </mxCell>
        <mxCell id="i7VJk_vyDsrVkz2_0ncC-21" value="Github" style="rounded=1;whiteSpace=wrap;html=1;" vertex="1" parent="1">
          <mxGeometry x="960" y="435" width="120" height="60" as="geometry" />
        </mxCell>
        <mxCell id="i7VJk_vyDsrVkz2_0ncC-22" value="Short closing for checking out the website" style="rounded=1;whiteSpace=wrap;html=1;" vertex="1" parent="1">
          <mxGeometry x="960" y="535" width="120" height="60" as="geometry" />
        </mxCell>
        <mxCell id="i7VJk_vyDsrVkz2_0ncC-54" style="edgeStyle=orthogonalEdgeStyle;rounded=0;orthogonalLoop=1;jettySize=auto;html=1;exitX=0.5;exitY=1;exitDx=0;exitDy=0;entryX=0.5;entryY=0;entryDx=0;entryDy=0;" edge="1" parent="1" source="i7VJk_vyDsrVkz2_0ncC-23" target="i7VJk_vyDsrVkz2_0ncC-28">
          <mxGeometry relative="1" as="geometry" />
        </mxCell>
        <mxCell id="i7VJk_vyDsrVkz2_0ncC-23" value="&lt;h4&gt;Structure of Website (Build your Own website 101)&lt;/h4&gt;" style="rounded=1;whiteSpace=wrap;html=1;" vertex="1" parent="1">
          <mxGeometry x="610" y="130" width="110" height="70" as="geometry" />
        </mxCell>
        <mxCell id="i7VJk_vyDsrVkz2_0ncC-58" style="edgeStyle=orthogonalEdgeStyle;rounded=0;orthogonalLoop=1;jettySize=auto;html=1;exitX=0.5;exitY=1;exitDx=0;exitDy=0;entryX=0.5;entryY=0;entryDx=0;entryDy=0;" edge="1" parent="1" source="i7VJk_vyDsrVkz2_0ncC-27" target="i7VJk_vyDsrVkz2_0ncC-32">
          <mxGeometry relative="1" as="geometry" />
        </mxCell>
        <mxCell id="i7VJk_vyDsrVkz2_0ncC-27" value="&lt;h2&gt;Web Development&lt;/h2&gt;" style="rounded=1;whiteSpace=wrap;html=1;" vertex="1" parent="1">
          <mxGeometry x="780" y="135" width="120" height="60" as="geometry" />
        </mxCell>
        <mxCell id="i7VJk_vyDsrVkz2_0ncC-55" style="edgeStyle=orthogonalEdgeStyle;rounded=0;orthogonalLoop=1;jettySize=auto;html=1;exitX=0.5;exitY=1;exitDx=0;exitDy=0;entryX=0.5;entryY=0;entryDx=0;entryDy=0;" edge="1" parent="1" source="i7VJk_vyDsrVkz2_0ncC-28" target="i7VJk_vyDsrVkz2_0ncC-29">
          <mxGeometry relative="1" as="geometry" />
        </mxCell>
        <mxCell id="i7VJk_vyDsrVkz2_0ncC-28" value="Frontend" style="rounded=1;whiteSpace=wrap;html=1;" vertex="1" parent="1">
          <mxGeometry x="610" y="240" width="110" height="60" as="geometry" />
        </mxCell>
        <mxCell id="i7VJk_vyDsrVkz2_0ncC-56" style="edgeStyle=orthogonalEdgeStyle;rounded=0;orthogonalLoop=1;jettySize=auto;html=1;exitX=0.5;exitY=1;exitDx=0;exitDy=0;" edge="1" parent="1" source="i7VJk_vyDsrVkz2_0ncC-29" target="i7VJk_vyDsrVkz2_0ncC-30">
          <mxGeometry relative="1" as="geometry" />
        </mxCell>
        <mxCell id="i7VJk_vyDsrVkz2_0ncC-29" value="Backend" style="rounded=1;whiteSpace=wrap;html=1;" vertex="1" parent="1">
          <mxGeometry x="605" y="340" width="120" height="60" as="geometry" />
        </mxCell>
        <mxCell id="i7VJk_vyDsrVkz2_0ncC-57" style="edgeStyle=orthogonalEdgeStyle;rounded=0;orthogonalLoop=1;jettySize=auto;html=1;exitX=0.5;exitY=1;exitDx=0;exitDy=0;entryX=0.5;entryY=0;entryDx=0;entryDy=0;" edge="1" parent="1" source="i7VJk_vyDsrVkz2_0ncC-30" target="i7VJk_vyDsrVkz2_0ncC-31">
          <mxGeometry relative="1" as="geometry" />
        </mxCell>
        <mxCell id="i7VJk_vyDsrVkz2_0ncC-30" value="Database" style="rounded=1;whiteSpace=wrap;html=1;" vertex="1" parent="1">
          <mxGeometry x="605" y="440" width="120" height="60" as="geometry" />
        </mxCell>
        <mxCell id="i7VJk_vyDsrVkz2_0ncC-31" value="Middleware/server" style="rounded=1;whiteSpace=wrap;html=1;" vertex="1" parent="1">
          <mxGeometry x="600" y="540" width="120" height="60" as="geometry" />
        </mxCell>
        <mxCell id="i7VJk_vyDsrVkz2_0ncC-59" style="edgeStyle=orthogonalEdgeStyle;rounded=0;orthogonalLoop=1;jettySize=auto;html=1;exitX=0.5;exitY=1;exitDx=0;exitDy=0;entryX=0.5;entryY=0;entryDx=0;entryDy=0;" edge="1" parent="1" source="i7VJk_vyDsrVkz2_0ncC-32" target="i7VJk_vyDsrVkz2_0ncC-33">
          <mxGeometry relative="1" as="geometry" />
        </mxCell>
        <mxCell id="i7VJk_vyDsrVkz2_0ncC-32" value="Introduce web developers" style="rounded=1;whiteSpace=wrap;html=1;" vertex="1" parent="1">
          <mxGeometry x="780" y="240" width="120" height="60" as="geometry" />
        </mxCell>
        <mxCell id="i7VJk_vyDsrVkz2_0ncC-33" value="What can you do with web developments" style="rounded=1;whiteSpace=wrap;html=1;" vertex="1" parent="1">
          <mxGeometry x="780" y="335" width="120" height="60" as="geometry" />
        </mxCell>
        <mxCell id="i7VJk_vyDsrVkz2_0ncC-35" value="" style="endArrow=classic;html=1;rounded=0;exitX=0;exitY=0.5;exitDx=0;exitDy=0;entryX=0.5;entryY=0;entryDx=0;entryDy=0;" edge="1" parent="1" source="i7VJk_vyDsrVkz2_0ncC-2" target="i7VJk_vyDsrVkz2_0ncC-3">
          <mxGeometry width="50" height="50" relative="1" as="geometry">
            <mxPoint x="400" y="400" as="sourcePoint" />
            <mxPoint x="450" y="350" as="targetPoint" />
            <Array as="points">
              <mxPoint x="340" y="40" />
            </Array>
          </mxGeometry>
        </mxCell>
        <mxCell id="i7VJk_vyDsrVkz2_0ncC-36" value="" style="endArrow=classic;html=1;rounded=0;exitX=0;exitY=0.75;exitDx=0;exitDy=0;entryX=0.5;entryY=0;entryDx=0;entryDy=0;" edge="1" parent="1" source="i7VJk_vyDsrVkz2_0ncC-2" target="i7VJk_vyDsrVkz2_0ncC-4">
          <mxGeometry width="50" height="50" relative="1" as="geometry">
            <mxPoint x="400" y="400" as="sourcePoint" />
            <mxPoint x="450" y="350" as="targetPoint" />
          </mxGeometry>
        </mxCell>
      </root>
    </mxGraphModel>
  </diagram>
</mxfile>
